# xmcd
#
# Track frame offsets: 
#        150
#        16405
#        36265
#        56475
#        73242
#        110565
#        126500
#        147525
#        159545
#        186082
#
# Disc length: 2668 seconds
#
# Revision: 5
# Processed by: cddbd v1.5.2PL0 Copyright (c) Steve Scherf et al.
# Submitted via: ExactAudioCopy v0.95b4
#
DISCID=980a6a0a
DTITLE=Mississippi Fred McDowell - I Do Not Play No Rock 'n' Roll [dis
DTITLE=c 2]
DYEAR=1995
DGENRE=Delta Blues
TTITLE0=Write Me a Few of Your Lines
TTITLE1=Mortgage on My Soul
TTITLE2=Baby Let Me Lay Down (in Your Cool Iron Bed)
TTITLE3=Drop Down Mama
TTITLE4=Rap - Louise
TTITLE5=Somebody Keeps Callin' Me
TTITLE6=Eyes like an Eagle
TTITLE7=My Baby She Gonna Jump and Shout
TTITLE8=Long Line Skinner
TTITLE9=Baby Please Don't Go [alt.]
EXTD=Mississippi Fred McDowell (1904/1972): vocals, guitar\nJerry Puck
EXTD=ett: bass\nDulin Lancaster: drums\nRecorded at Malaco Sound Recor
EXTD=ding Studios, Jackson US-MS, ca. 1969-11.\nProduced by Tommy Couc
EXTD=h.\nDisc 1/tracks 1-9 released as "I Do Not Play No Roll 'n' Roll
EXTD=", Capitol ST-409 (1970).\nDisc 1/track 10 and disc 2/tracks 1-7 
EXTD=released as "Mississippi Fred McDowell: 1904-1972", Just Sunshine
EXTD=JSS-4 (1972).\nDisc 2/tracks 8-10 previously unreleased.\nReissu
EXTD=e produced and compiled by Pete Welding.\nDigitally remastered by
EXTD=Bob Norberg at Capitol Recording Studios.\n2CD: Capitol 33919 (1
EXTD=995, 2006-05-02), UPC 724383391929.
EXTT0=
EXTT1=
EXTT2=
EXTT3=
EXTT4=
EXTT5=
EXTT6=
EXTT7=
EXTT8=
EXTT9=
PLAYORDER=
